<?xml version="1.0" encoding="UTF-8"?>
<svg width="1280" height="640" version="1.1" viewBox="0 0 338.66 169.33" xmlns="http://www.w3.org/2000/svg">
    <rect width="338.66" height="169.33" fill="#002364"/>
    <g fill="#fff">
        <path d="m102.74 71.823v-15.379h-46.296v56.443h46.296v-15.379h-28.38v-5.3114h26.24v-14.824h-26.24v-5.5493z"/>
        <path d="m154.19 71.823v-15.379h-46.296v56.443h46.296v-15.379h-28.38v-5.3114h26.24v-14.824h-26.24v-5.5493z"/>
        <path d="m206.51 56.443h-49.15v15.379h15.618v41.064h17.916v-41.064h15.618z"/>
        <path d="m248.11 78.601v16.001h12.841c-2.0382 6.3183-6.828 8.6628-12.943 8.6628-9.2741 0-14.472-6.0128-14.472-18.446 0-14.064 6.6242-18.548 14.37-18.548 5.4014 0 9.8853 2.1402 11.72 7.1339h23.542c-2.344-16.102-16-26.701-35.67-26.701-23.848 0-37.81 15.695-37.81 37.708 0 21.605 12.434 38.217 34.854 38.217 7.1339 0 16.306-1.6306 22.217-9.4778l1.6306 7.7451h14.879v-42.294z"/>
    </g>
</svg> 