<svg width="1280" height="640" version="1.1" viewBox="0 0 338.67 169.33" xmlns="http://www.w3.org/2000/svg">
  <rect width="338.67" height="169.33" fill="#cbd8f2"/>
  <g transform="matrix(.45079 .45079 -.45079 .45079 79.721 8.5459)">
   <path transform="scale(.26458)" d="m226.37 12.315c-120.77 36.749-209.02 141.92-224.24 267.24a321.74 321.74 87.5 0 0 4.5959 105.26c26.082 123.52 123.16 220.59 246.67 246.67a321.73 321.73 2.5001 0 0 105.26 4.5958c125.32-15.218 230.49-103.47 267.24-224.24a46.976 46.976 54.813 0 0-41.298-58.571l-53.312-7.0184a68.574 68.574 147.06 0 0-67.327 43.628c-18.569 38.244-51.791 67.666-92 81.475a160.02 160.02 179.99 0 1-103.93 0.0174c-46.565-15.981-83.427-52.844-99.409-99.409a160.02 160.02 90.01 0 1 0.0178-103.92c13.637-39.708 42.503-72.621 80.093-91.322a69.319 69.319 122.67 0 0 43.482-67.814l-7.2794-55.291a46.976 46.976 35.187 0 0-58.571-41.297z" fill="#293ea6"/>
   <path transform="scale(.26458)" d="m320 52.917v54.167a69.305 69.305 49.824 0 0 51.964 61.544c46.565 15.981 83.427 52.844 99.409 99.409a69.305 69.305 40.176 0 0 61.544 51.964h54.167a46.988 46.988 132.69 0 0 48.601-52.681c-22.283-134.53-128.48-240.72-263-263a46.988 46.988 137.31 0 0-52.681 48.601z" fill="#8900cd"/>
  </g>
  <g transform="matrix(.71873 0 0 .71873 109.16 23.814)" fill="#162159">
   <path d="m102.74 71.823v-15.379h-46.296v56.443h46.296v-15.379h-28.38v-5.3114h26.24v-14.824h-26.24v-5.5493z"/>
   <path d="m154.19 71.823v-15.379h-46.296v56.443h46.296v-15.379h-28.38v-5.3114h26.24v-14.824h-26.24v-5.5493z"/>
   <path d="m206.51 56.443h-49.15v15.379h15.618v41.064h17.916v-41.064h15.618z"/>
   <path d="m248.11 78.601v16.001h12.841c-2.0382 6.3183-6.828 8.6628-12.943 8.6628-9.2741 0-14.472-6.0128-14.472-18.446 0-14.064 6.6242-18.548 14.37-18.548 5.4014 0 9.8853 2.1402 11.72 7.1339h23.542c-2.344-16.102-16-26.701-35.67-26.701-23.848 0-37.81 15.695-37.81 37.708 0 21.605 12.434 38.217 34.854 38.217 7.1339 0 16.306-1.6306 22.217-9.4778l1.6306 7.7451h14.879v-42.294z"/>
  </g>
</svg>
