<?xml version="1.0" encoding="UTF-8"?>
<svg width="640" height="640" version="1.1" viewBox="0 0 169.33 169.33" xmlns="http://www.w3.org/2000/svg">
    <rect width="169.33" height="169.33" fill="#002364"/>
    <g fill="#fff">
        <path d="m84.921 129.02v26.152h20.988c-3.3314 10.327-11.16 14.159-21.155 14.159-15.158 0-23.653-9.8277-23.653-30.149 0-22.987 10.827-30.316 23.487-30.316 8.8283 0 16.157 3.498 19.156 11.66h38.478c-3.8311-26.318-26.152-43.642-58.3-43.642-38.978 0-61.798 25.652-61.798 61.631 0 35.313 20.322 62.464 56.967 62.464 11.66 0 26.651-2.6651 36.313-15.491l2.6652 12.659h24.319v-69.127z"/>
        <path d="m64.044 43.974v-12.325h-37.102v45.234h37.102v-12.325h-22.744v-4.2566h21.029v-11.88h-21.029v-4.4472z"/>
        <path d="m105.28 43.974v-12.325h-37.102v45.234h37.102v-12.325h-22.744v-4.2566h21.029v-11.88h-21.029v-4.4472z"/>
        <path d="m147.21 31.649h-39.389v12.325h12.516v32.909h14.358v-32.909h12.516z"/>
    </g>
</svg>
