<svg width="640" height="640" version="1.1" viewBox="0 0 169.33 169.33" xmlns="http://www.w3.org/2000/svg">
  <g transform="matrix(.71128 .71128 -.71128 .71128 85.285 -35.608)">
   <path transform="scale(.26458)" d="m226.37 12.315c-120.77 36.749-209.02 141.92-224.24 267.24a321.74 321.74 87.5 0 0 4.5959 105.26c26.082 123.52 123.16 220.59 246.67 246.67a321.73 321.73 2.5001 0 0 105.26 4.5958c125.32-15.218 230.49-103.47 267.24-224.24a46.976 46.976 54.813 0 0-41.298-58.571l-53.312-7.0184a68.574 68.574 147.06 0 0-67.327 43.628c-18.569 38.244-51.791 67.666-92 81.475a160.02 160.02 179.99 0 1-103.93 0.0174c-46.565-15.981-83.427-52.844-99.409-99.409a160.02 160.02 90.01 0 1 0.0178-103.92c13.637-39.708 42.503-72.621 80.093-91.322a69.319 69.319 122.67 0 0 43.482-67.814l-7.2794-55.291a46.976 46.976 35.187 0 0-58.571-41.297z" fill="#293ea6"/>
   <path transform="scale(.26458)" d="m320 52.917v54.167a69.305 69.305 49.824 0 0 51.964 61.544c46.565 15.981 83.427 52.844 99.409 99.409a69.305 69.305 40.176 0 0 61.544 51.964h54.167a46.988 46.988 132.69 0 0 48.601-52.681c-22.283-134.53-128.48-240.72-263-263a46.988 46.988 137.31 0 0-52.681 48.601z" fill="#8900cd"/>
  </g>
</svg>
